<?xml version="1.0" encoding="utf-8"?>
<!-- Generator: Adobe Illustrator 27.5.0, SVG Export Plug-In . SVG Version: 6.00 Build 0)  -->
<svg width="162" height="42" version="1.1" id="Layer_1" xmlns="http://www.w3.org/2000/svg" xmlns:xlink="http://www.w3.org/1999/xlink" x="0px" y="0px"
	 viewBox="0 0 1853.79 388.65" style="enable-background:new 0 0 1853.79 388.65;" xml:space="preserve">
<style type="text/css">
	.st0{fill:#1E1848;}
	.st1{fill:#01E4A3;}
</style>
<g>
	<g>
		<path class="st0" d="M739.49,37.59l1.3-2.04c7.26-11.36-0.9-26.26-14.39-26.26h-2.42H441.91h-2.26
			c-13.04,0-21.27,14.03-14.9,25.41l1.1,1.97L608.79,363.7c7.38,13.19,21.36,21.38,36.48,21.38c7.11,0,14.15-1.84,20.38-5.32
			l1.16-0.65c19.13-10.7,25.96-34.89,15.26-54.02l-58.94-105.37l14.97-23.43L739.49,37.59z M520.36,69.91h118.73L574.11,166
			L520.36,69.91z"/>
	</g>
</g>
<g>
	<g>
		<g>
			<path class="st1" d="M115.59,94.04h32.77l-16.3-28.11c-0.09-0.15-0.18-0.31-0.26-0.47L106.26,15.2
				c-0.08-0.16-0.17-0.32-0.26-0.47l-2.52-4.35c-1.73-2.99-4.92-4.82-8.37-4.82h-5.3H31.44l-16.24,0c-7.5,0-12.15,8.16-8.32,14.61
				l0,0l35.22,64.67l5.49,9.21H58.3H115.59z"/>
		</g>
		<g>
			<path class="st1" d="M313.13,94.04h32.77L329.46,65.7l-25.78-50.74l-0.25-0.43c-3.22-5.55-9.16-8.97-15.58-8.97h-0.5h-58.37
				l-17.02,0c-7.16,0-11.59,7.79-7.94,13.94l0.4,0.67l35.22,64.67l5.49,9.21h10.72H313.13z"/>
		</g>
	</g>
</g>
<g>
	<g>
		<g>
			<path class="st0" d="M536.49,264.35l-25.87-42.67l-13.28-21.9c-0.65-1.07-2.19-1.12-2.9-0.09l-14.64,21.02l-29.17,41.87
				c-0.73,1.04-2.29,0.98-2.92-0.12L364.66,119.3l-4.82-8.3c-0.31-0.53-0.88-0.86-1.5-0.86h-9.6h-56.81h-29.34
				c-1.35,0-2.18,1.47-1.49,2.62l15.03,25.2l135.82,227.73c3.77,6.32,8.91,11.92,15.48,15.22c17.15,8.61,36.54,2.83,46.62-11.36
				l61.59-84.85l6.5-8.96c0.41-0.56,0.44-1.32,0.08-1.92L536.49,264.35z"/>
		</g>
		<g>
			<path class="st0" d="M331.86,264.35l-25.87-42.67l-13.28-21.9c-0.65-1.07-2.19-1.12-2.9-0.09l-14.64,21.02l-29.17,41.87
				c-0.72,1.04-2.28,0.98-2.92-0.12L160.04,119.3l-4.82-8.3c-0.31-0.53-0.88-0.86-1.5-0.86h-9.6H87.32H57.97
				c-1.34,0-2.18,1.47-1.49,2.62l15.03,25.2l135.81,227.73c3.77,6.32,8.91,11.92,15.48,15.22c17.15,8.61,36.54,2.83,46.63-11.36
				l61.59-84.85l6.5-8.96c0.41-0.56,0.44-1.32,0.08-1.92L331.86,264.35z"/>
		</g>
	</g>
</g>
<g>
	<g>
		<path class="st0" d="M860.65,33.26c0-13.19,10.69-23.88,23.88-23.88h151.97c55.93,0,116.47,41.52,116.47,126.28
			c0,84.18-60.54,126.28-116.47,126.28h-91.1v81.32c0,22.6-18.32,40.92-40.92,40.92h0c-24.21,0-43.84-19.63-43.84-43.84V33.26z
			 M1026.46,183.99c24.28,0,47.96-15.99,47.96-45.6s-22.5-45-46.78-45h-66.64c-7.02,0-12.71,5.69-12.71,12.71v64.99
			c0,7.12,5.77,12.89,12.89,12.89H1026.46z"/>
		<path class="st0" d="M1167.93,33.31c0-13.77,11.17-24.94,24.94-24.94h156.69c55.35,0,116.47,41.52,116.47,126.28
			c0,60.71-31.82,99.64-70.19,116.25c-1,0.43-1.39,1.62-0.82,2.55l46.3,75.94c14.37,23.57-2.6,53.77-30.2,53.77h-11.84
			c-14.41,0-27.77-7.51-35.26-19.82l-61.79-101.55c-0.33-0.54-0.91-0.87-1.55-0.87h-46.18c-1,0-1.81,0.81-1.81,1.81v79.49
			c0,22.61-18.33,40.94-40.94,40.94h0c-24.2,0-43.82-19.62-43.82-43.82V33.31z M1335.14,179.05c24.22,0,46.13-15.57,46.13-44.4
			s-21.91-43.82-46.13-43.82h-64.85c-9.72,0-17.6,7.88-17.6,17.6v51.82c0,10.38,8.41,18.79,18.79,18.79H1335.14z"/>
		<path class="st0" d="M1479.45,164.95c11.39-86.22,72.3-148.86,158.3-160.31c121.16-16.13,225.95,87.2,216.11,209.03
			c-7.13,88.26-64.23,154.01-148.07,169.57C1577.08,407.14,1462.3,294.73,1479.45,164.95z M1769.69,201.68
			c3.19-66.93-39.9-115.78-106.33-114.12c-54.48,1.37-98.17,45.71-100.9,100.14c-3.34,66.69,40.6,115.45,106.48,114.29
			C1723.44,301.03,1767.09,256.13,1769.69,201.68z"/>
	</g>
</g>
</svg>
